# xmcd CD database file
#
# Track frame offsets:
#	150
#	13275
#	24575
#	39535
#	53860
#	64185
#	78580
#	91975
#	104887
#	117947
#	132812
#	145812
#
# Disc length: 2142 seconds
#
# Revision: 0
# Processed by: cddbd v1.5.1PL2 Copyright (c) Steve Scherf et al.
# Submitted via: CDex 1.50
#
DISCID=a9085c0c
DTITLE=Arthur Blanch - You Don't Know Me
DYEAR=1992
DGENRE=Country
TTITLE0=You Don't Know Me
TTITLE1=Swagman
TTITLE2=Best Performance Of the Year
TTITLE3=A Bottle A Day
TTITLE4=Lovin' Pains
TTITLE5=Let Me Be The First To Go
TTITLE6=Hello Tamworth
TTITLE7=Old Frank
TTITLE8=Saturday
TTITLE9=There's So Much That I Forgot
TTITLE10=Almost Anytime
TTITLE11=These Lips Don't Know How To Say Goodbye
EXTD=YEAR: 1992
EXTT0=
EXTT1=
EXTT2=
EXTT3=
EXTT4=
EXTT5=
EXTT6=
EXTT7=
EXTT8=
EXTT9=
EXTT10=
EXTT11=
PLAYORDER=
